<?xml version="1.0" encoding="UTF-8" standalone="no"?>
<svg
   xmlns:dc="http://purl.org/dc/elements/1.1/"
   xmlns:cc="http://creativecommons.org/ns#"
   xmlns:rdf="http://www.w3.org/1999/02/22-rdf-syntax-ns#"
   xmlns:svg="http://www.w3.org/2000/svg"
   xmlns="http://www.w3.org/2000/svg"
   xmlns:sodipodi="http://sodipodi.sourceforge.net/DTD/sodipodi-0.dtd"
   xmlns:inkscape="http://www.inkscape.org/namespaces/inkscape"
   width="64"
   height="64"
   viewBox="0 0 640 640"
   shape-rendering="geometricPrecision"
   text-rendering="geometricPrecision"
   image-rendering="optimizeQuality"
   fill-rule="evenodd"
   clip-rule="evenodd"
   version="1.1"
   id="svg4"
   sodipodi:docname="exit.svg"
   inkscape:version="0.92.3 (2405546, 2018-03-11)">
  <metadata
     id="metadata10">
    <rdf:RDF>
      <cc:Work
         rdf:about="">
        <dc:format>image/svg+xml</dc:format>
        <dc:type
           rdf:resource="http://purl.org/dc/dcmitype/StillImage" />
        <dc:title></dc:title>
      </cc:Work>
    </rdf:RDF>
  </metadata>
  <defs
     id="defs8" />
  <sodipodi:namedview
     pagecolor="#ffffff"
     bordercolor="#666666"
     borderopacity="1"
     objecttolerance="10"
     gridtolerance="10"
     guidetolerance="10"
     inkscape:pageopacity="0"
     inkscape:pageshadow="2"
     inkscape:window-width="1227"
     inkscape:window-height="929"
     id="namedview6"
     showgrid="false"
     inkscape:zoom="3.6875"
     inkscape:cx="32"
     inkscape:cy="32"
     inkscape:window-x="551"
     inkscape:window-y="1481"
     inkscape:window-maximized="0"
     inkscape:current-layer="svg4" />
  <path
     d="m 63.515864,25.737508 c -14.197,-13.807 -36.886,-13.476 -50.67,0.697 -13.81999959,14.185 -13.48799959,36.874 0.697,50.681998 l 285.368996,276.724004 24.992,-25.69 -25.004,25.796 c 14.244,13.807 36.98,13.453 50.8,-0.791 0.413,-0.402 0.78,-0.815 1.17,-1.252 l 280.987,-274.787004 c 14.209,-13.807998 14.516,-36.496998 0.72,-50.681998 -13.807,-14.174 -36.496,-14.504 -50.67,-0.697 L 323.80086,278.13051 63.516864,25.737508 Z"
     id="path2"
     inkscape:connector-curvature="0"
     style="fill-rule:nonzero" />
  <path
     inkscape:connector-curvature="0"
     style="fill-rule:nonzero;stroke-width:1"
     d="m 63.515864,630.56351 c -14.197,13.807 -36.886004,13.476 -50.670004,-0.697 -13.81999959,-14.185 -13.48799959,-36.874 0.697,-50.682 l 285.369,-276.724 24.992,25.69 -25.004,-25.796 c 14.244,-13.807 36.98,-13.453 50.8,0.791 0.413,0.402 0.78,0.815 1.17,1.252 l 280.987,274.787 c 14.209,13.808 14.516,36.497 0.72,50.682 -13.807,14.174 -36.496,14.504 -50.67,0.697 l -258.106,-252.393 -260.283996,252.393 z"
     id="path2-7" />
</svg>
